# xmcd
#
# Track frame offsets: 
#        150
#        17135
#        36265
#        58638
#        78565
#        93720
#        107480
#        124158
#        139425
#        154298
#        172855
#        192753
#        213630
#        230953
#        247538
#        262055
#        290808
#
# Disc length: 4094 seconds
#
# Revision: 4
# Processed by: cddbd v1.5.2PL0 Copyright (c) Steve Scherf et al.
# Submitted via: ExactAudioCopyFreeDBPlugin 1.0
#
DISCID=fd0ffc11
DTITLE=Various Artist - Alligator - makes the blues come alive
DYEAR=1990
DGENRE=Blues
TTITLE0=Kenny Neal - The Son I Never Knew
TTITLE1=Charlie Musselwhite - River Hip Mama
TTITLE2=Koko Taylor - Can't Let Go
TTITLE3=Lonnie Mack - Natural Disease
TTITLE4=Katie Webster - Two Fisted Mama
TTITLE5=Paladins - I Don't Believe
TTITLE6=Lonnie Brooks - Watch Dog
TTITLE7=Little Charlie and The Nightcats - Dump That Chump
TTITLE8=Saffire - Silent Thunder In My Heart
TTITLE9=Albert Collins - I Ain't Drunk
TTITLE10=Delbert McClinton - B Movie Boxcar Blues
TTITLE11=Clarence "Gatemouth" Brown - Got My Mojo Working
TTITLE12=William Clarke - Lollipop Mama
TTITLE13=Elvin Bishop - Rollin' With The Blues
TTITLE14=Lucky Peterson - Your Lies
TTITLE15=Harp Attack(James Cotton/Junior Wells/Carey Bell/Billi Branch
TTITLE15=) - Down Home Blues
TTITLE16=Hound Dog Taylor - Give Me Back My Wig
EXTD=
EXTT0=
EXTT1=
EXTT2=
EXTT3=
EXTT4=
EXTT5=
EXTT6=
EXTT7=
EXTT8=
EXTT9=
EXTT10=
EXTT11=
EXTT12=
EXTT13=
EXTT14=
EXTT15=
EXTT16=
PLAYORDER=
